HIERARCHY
ROOT SpineBase
{
  OFFSET 0.000000 0.000000 0.000000
  CHANNELS 6 Xposition Yposition Zposition Zrotation Xrotation Yrotation
  JOINT SpineMid
  {
    OFFSET 0.000000 28.679470 0.000000
    CHANNELS 3 Zrotation Xrotation Yrotation
    JOINT SpineShoulder
    {
      OFFSET 0.009919 21.322495 -0.778744
      CHANNELS 3 Zrotation Xrotation Yrotation
      JOINT Neck
      {
        OFFSET 0.024145 7.067841 -0.579611
        CHANNELS 3 Zrotation Xrotation Yrotation
        JOINT Head
        {
          OFFSET 1.351416 14.554124 -2.091008
          CHANNELS 3 Zrotation Xrotation Yrotation
          End Site
          {
            OFFSET 0 0 0
          }
        }
      }
      JOINT ShoulderLeft
      {
        OFFSET -14.460263 -1.242789 -7.661567
        CHANNELS 3 Zrotation Xrotation Yrotation
        JOINT ElbowLeft
        {
          OFFSET -4.756651 -24.098786 -3.296272
          CHANNELS 3 Zrotation Xrotation Yrotation
          JOINT WristLeft
          {
            OFFSET 3.208981 -20.812661 -6.152879
            CHANNELS 3 Zrotation Xrotation Yrotation
            JOINT HandLeft
            {
              OFFSET 1.554752 -6.384656 -1.030559
              CHANNELS 3 Zrotation Xrotation Yrotation
              JOINT HandTipLeft
              {
                OFFSET 0.871228 -6.075863 -0.580834
                CHANNELS 3 Zrotation Xrotation Yrotation
                End Site
                {
                  OFFSET 0 0 0
                }
              }
              JOINT ThumbLeft
              {
                OFFSET 3.559243 0.901887 0.402636
                CHANNELS 3 Zrotation Xrotation Yrotation
                End Site
                {
                  OFFSET 0 0 0
                }
              }
            }
          }
        }
      }
      JOINT ShoulderRight
      {
        OFFSET 15.088174 -2.886565 4.873038
        CHANNELS 3 Zrotation Xrotation Yrotation
        JOINT ElbowRight
        {
          OFFSET 1.215790 -27.062929 3.140815
          CHANNELS 3 Zrotation Xrotation Yrotation
          JOINT WristRight
          {
            OFFSET -0.436104 -21.613658 -5.508103
            CHANNELS 3 Zrotation Xrotation Yrotation
            JOINT HandRight
            {
              OFFSET -1.627837 -5.654056 -1.754103
              CHANNELS 3 Zrotation Xrotation Yrotation
              JOINT HandTipRight
              {
                OFFSET 0.058196 -3.869420 -1.659856
                CHANNELS 3 Zrotation Xrotation Yrotation
                End Site
                {
                  OFFSET 0 0 0
                }
              }
              JOINT ThumbRight
              {
                OFFSET 3.190276 -1.368301 -2.716261
                CHANNELS 3 Zrotation Xrotation Yrotation
                End Site
                {
                  OFFSET 0 0 0
                }
              }
            }
          }
        }
      }
    }
  }
  JOINT HipLeft
  {
    OFFSET -6.536897 1.041044 -5.652146
    CHANNELS 3 Zrotation Xrotation Yrotation
    JOINT KneeLeft
    {
      OFFSET -6.882245 -27.182404 -0.131799
      CHANNELS 3 Zrotation Xrotation Yrotation
      JOINT AnkleLeft
      {
        OFFSET -4.326919 -32.247960 4.809826
        CHANNELS 3 Zrotation Xrotation Yrotation
        JOINT FootLeft
        {
          OFFSET 4.196170 -3.683474 -12.409627
          CHANNELS 3 Zrotation Xrotation Yrotation
          End Site
          {
            OFFSET 0 0 0
          }
        }
      }
    }
  }
  JOINT HipRight
  {
    OFFSET 7.087135 0.599777 -1.012961
    CHANNELS 3 Zrotation Xrotation Yrotation
    JOINT KneeRight
    {
      OFFSET -6.293114 -29.068139 4.523482
      CHANNELS 3 Zrotation Xrotation Yrotation
      JOINT AnkleRight
      {
        OFFSET -5.905230 -31.921721 4.875974
        CHANNELS 3 Zrotation Xrotation Yrotation
        JOINT FootRight
        {
          OFFSET -0.733382 -7.518319 -6.516942
          CHANNELS 3 Zrotation Xrotation Yrotation
          End Site
          {
            OFFSET 0 0 0
          }
        }
      }
    }
  }
}
MOTION
Frames: 9
Frame Time: 0.033333
-38.610629 62.436843 356.240457 -20.254469 -11.797985 9.980731 -1.183516 -0.557308 -12.899972 0.170304 -0.198505 -0.958953 -10.817433 29.569247 5.278839 0.000000 0.000000 0.000000 -14.435215 2.356970 10.817198 19.298334 7.145239 -1.320214 3.107732 -14.466718 -8.480284 -6.650318 17.984027 7.742933 0.000000 0.000000 0.000000 0.000000 0.000000 0.000000 84.679594 58.489532 -36.503901 4.694955 -8.159764 -12.807655 8.019745 -10.628666 -7.586286 -30.247493 22.144993 5.267697 0.000000 0.000000 0.000000 0.000000 0.000000 0.000000 32.313143 28.007195 -22.491323 5.644996 -22.415302 9.418090 -15.074310 -12.611600 18.956740 0.000000 0.000000 0.000000 39.362444 13.732183 -16.712116 -16.163053 -11.645841 -1.568684 -4.113115 31.805888 2.514103 0.000000 0.000000 0.000000
-39.666121 61.294968 356.973012 -22.508967 -14.154897 13.208806 -0.948195 -0.612174 -16.951928 0.419279 0.092695 -0.996980 -11.995995 31.050204 6.636193 0.000000 0.000000 0.000000 -16.336281 -0.443521 12.166832 16.782107 8.499190 -0.835793 3.782914 -7.737790 -7.782220 -6.219429 12.959979 5.907695 0.000000 0.000000 0.000000 0.000000 0.000000 0.000000 91.544003 57.433198 -40.946804 4.283654 -6.412061 -14.315900 9.491468 -9.807072 -8.123129 -31.908380 25.430345 4.436753 0.000000 0.000000 0.000000 0.000000 0.000000 0.000000 37.256851 28.174831 -27.481022 7.728949 -22.023910 10.523431 -18.771473 -21.484117 20.632864 0.000000 0.000000 0.000000 46.031434 14.068647 -21.844925 -18.156567 -15.243798 -1.660573 -2.482095 34.171836 0.385537 0.000000 0.000000 0.000000
-40.300230 60.612862 357.268893 -23.811406 -15.883224 13.914944 -0.551808 -0.544005 -18.240749 0.543060 0.314974 -0.997363 -12.544612 30.127511 6.980770 0.000000 0.000000 0.000000 -16.922692 -3.779016 12.581410 10.372223 8.288360 0.580856 -0.343976 -8.809015 -10.849045 -3.299158 22.700648 11.005259 0.000000 0.000000 0.000000 0.000000 0.000000 0.000000 87.676049 55.259438 -37.381814 6.455423 -4.350336 -14.285561 3.834496 -5.075476 -12.492580 -30.315379 23.862146 5.861121 0.000000 0.000000 0.000000 0.000000 0.000000 0.000000 39.175599 28.146663 -28.964281 8.911865 -20.327666 10.635136 -22.767827 -35.003080 20.892896 0.000000 0.000000 0.000000 50.326214 15.600305 -24.611658 -19.341975 -18.533434 -1.623210 -1.784579 34.711145 -0.678149 0.000000 0.000000 0.000000
-40.213721 60.703008 356.712900 -23.581621 -16.125343 11.755990 -0.134347 -0.283604 -16.043459 0.366542 0.605479 -0.903829 -10.678997 26.285429 5.478096 0.000000 0.000000 0.000000 -16.237532 -7.639526 11.731775 2.946019 7.267572 2.273923 -15.913683 -11.183360 -13.796016 8.390251 33.028920 14.561132 0.000000 0.000000 0.000000 0.000000 0.000000 0.000000 72.089384 51.566563 -25.718495 7.679939 1.849951 -14.386830 2.330736 -1.172889 -14.452961 -24.400438 23.918020 6.983570 0.000000 0.000000 0.000000 0.000000 0.000000 0.000000 36.318838 27.528510 -25.651687 9.039323 -16.932013 9.368427 -23.873352 -38.470708 18.634473 0.000000 0.000000 0.000000 49.737666 18.340281 -23.756415 -18.420571 -20.114045 -1.117800 -2.897853 33.485861 -0.017346 0.000000 0.000000 0.000000
-40.520543 61.438881 355.470140 -23.870669 -15.323523 8.949677 0.487725 -0.363507 -13.170075 0.410787 0.737886 -0.869939 -7.331454 22.841241 3.861010 0.000000 0.000000 0.000000 -16.146295 -11.333421 10.869524 -1.277667 5.961482 2.782279 -23.670484 -7.072826 -9.232384 20.419368 22.051879 4.153540 0.000000 0.000000 0.000000 0.000000 0.000000 0.000000 54.928142 43.755548 -13.842050 8.129299 11.339211 -14.184540 3.602083 4.143247 -16.166334 -24.546901 17.685446 9.349808 0.000000 0.000000 0.000000 0.000000 0.000000 0.000000 35.380145 24.721324 -21.540478 6.060502 -13.485397 7.232705 -24.680121 -44.034075 17.412777 0.000000 0.000000 0.000000 48.854195 18.968638 -20.736928 -18.410896 -19.654891 -1.036577 -1.651567 34.120056 -1.486635 0.000000 0.000000 0.000000
-40.322255 62.828485 353.627304 -23.092262 -13.545605 6.348159 0.300632 -0.495471 -10.079014 0.542376 0.727070 -0.859857 -3.758725 18.587486 2.293474 0.000000 0.000000 0.000000 -15.657415 -14.835728 9.717760 -4.625940 4.970585 3.127414 -21.457371 -3.167655 -5.602674 19.012005 12.959132 -0.294752 0.000000 0.000000 0.000000 0.000000 0.000000 0.000000 39.448776 31.625049 -5.288787 5.182867 24.993801 -11.861651 8.916350 8.091576 -16.126872 -21.887509 5.611477 11.035192 0.000000 0.000000 0.000000 0.000000 0.000000 0.000000 32.686967 20.970646 -16.632787 3.709404 -9.835280 5.234749 -22.660823 -40.971789 17.062522 0.000000 0.000000 0.000000 45.540226 18.019684 -16.350903 -17.796348 -17.656296 -0.948277 2.131028 36.647799 -5.383256 0.000000 0.000000 0.000000
-39.727818 64.674291 351.542311 -21.564522 -11.056472 4.286354 0.158087 -0.305332 -7.244406 0.806330 0.738168 -0.814150 -1.386668 13.416246 1.009899 0.000000 0.000000 0.000000 -15.087060 -17.816604 8.219744 -6.458424 5.308604 3.659026 -16.476536 0.903569 -2.871932 16.608632 0.487781 -6.781244 0.000000 0.000000 0.000000 0.000000 0.000000 0.000000 26.899525 17.512566 -1.003642 -0.429350 38.818269 -5.100297 9.215072 12.160297 -15.657054 -12.108272 -11.609166 13.427553 0.000000 0.000000 0.000000 0.000000 0.000000 0.000000 29.079323 16.453187 -11.794075 2.442751 -6.401416 3.638461 -18.732863 -29.929464 18.484490 0.000000 0.000000 0.000000 40.839937 15.461050 -11.515458 -16.535649 -14.916612 -0.798285 1.893194 35.255758 -5.076410 0.000000 0.000000 0.000000
-38.893716 66.526633 349.349378 -19.843253 -8.396796 3.629956 -0.137605 -0.070730 -5.832595 1.206315 0.856352 -0.734181 0.512658 9.138916 0.227096 0.000000 0.000000 0.000000 -14.117328 -19.983086 6.797401 -7.968196 7.499026 5.303606 -13.475242 0.577140 -4.182018 15.164851 -4.010802 -8.526391 0.000000 0.000000 0.000000 0.000000 0.000000 0.000000 18.975903 6.620067 0.100046 -13.676674 47.525289 7.539731 6.047399 16.239037 -14.241674 3.873683 -23.008809 17.390905 0.000000 0.000000 0.000000 0.000000 0.000000 0.000000 25.599760 10.984740 -8.365073 1.985782 -3.035934 2.258840 -16.083216 -21.958980 18.342007 0.000000 0.000000 0.000000 36.277720 11.477135 -7.935020 -14.778905 -12.580991 -0.518401 0.897471 34.943350 -4.250298 0.000000 0.000000 0.000000
-38.026746 68.118560 347.298917 -18.058485 -5.523755 3.694394 -0.366347 0.237391 -5.194276 1.603452 0.928682 -0.634164 1.713375 5.585999 -0.208695 0.000000 0.000000 0.000000 -13.356343 -21.516940 5.494181 -7.961093 9.326577 5.865428 -11.789915 6.155849 0.719197 11.622811 -8.327457 -9.544086 0.000000 0.000000 0.000000 0.000000 0.000000 0.000000 14.097264 -0.488391 0.211856 -28.988077 51.424910 21.343010 -11.996559 13.623544 -12.016933 18.050719 -18.548744 18.737093 0.000000 0.000000 0.000000 0.000000 0.000000 0.000000 22.531737 5.614344 -6.089384 1.785860 -0.614940 1.253922 -13.665114 -13.683014 18.535565 0.000000 0.000000 0.000000 32.047140 6.864918 -5.341662 -12.949849 -10.496479 -0.297000 2.120513 36.293669 -5.699963 0.000000 0.000000 0.000000
